<?xml version="1.0" encoding="UTF-8"?>
<svg width="180px" height="180px" viewBox="0 0 180 180" version="1.1" xmlns="http://www.w3.org/2000/svg" xmlns:xlink="http://www.w3.org/1999/xlink">
    <title>annaStore</title>
    <g id="annaStore" stroke="none" stroke-width="1" fill="none" fill-rule="evenodd">
        <path d="M41.8412445,23.877969 L73.1751226,23.877969 L73.1751226,27.9959651 L73.5650965,31.6165994 L74.7557851,34.6155475 L76.4253961,37.6545723 L78.4383058,40.4039862 L80.6810895,43.47477 L82.9480705,46.3164359 L86.0944707,48.8987374 L90.1490243,51.5657293 L94.6202246,53.8493459 L99.998066,55.3087433 L105.288949,55.3087433 L105.288949,88 C94.6748787,86.864209 87.2279193,85.5494911 82.9480705,84.0558463 C71.5561582,80.0801287 63.4010507,73.3058959 58.576891,68.4304646 C54.1030638,63.9090892 48.810118,57.1869485 45.7183148,47.5799866 C44.3043839,43.1865695 43.0120271,35.2858969 41.8412445,23.877969 Z" id="Path-8" stroke="#979797" fill="#2B8DFF"></path>
        <polygon id="Path-9" fill="#33C89B" points="105.288949 23.877969 138.104972 23.877969 138.104972 54.7620364 105.288949 54.7620364"></polygon>
        <polygon id="Path-10" fill="#33C89B" points="40.6867967 88 40.6867967 152.971916 138.104972 152.971916 138.104972 88 105.288949 88 105.288949 120.485958 73.5650965 120.485958 73.5650965 88"></polygon>
    </g>
</svg>