<?xml version="1.0" encoding="UTF-8"?>
<svg width="188px" height="175px" viewBox="0 0 188 175" version="1.1" xmlns="http://www.w3.org/2000/svg" xmlns:xlink="http://www.w3.org/1999/xlink">
    <title>guinsoomin</title>
    <defs>
        <radialGradient cx="50%" cy="0%" fx="50%" fy="0%" r="97.8585726%" id="radialGradient-1">
            <stop stop-color="#FFFFFF" stop-opacity="0.5" offset="0%"></stop>
            <stop stop-color="#000000" stop-opacity="0.5" offset="100%"></stop>
        </radialGradient>
        <path d="M173.525965,43.7695313 L154.572866,6.25 C152.624576,2.3828125 149.018531,0 145.104861,0 L107.198662,0 C103.302083,0 99.6789472,2.3828125 97.7306575,6.25 L87.7841256,26.09375 L77.2736151,6.25 C75.3253253,2.3828125 71.70219,0 67.8056105,0 L29.8823213,0 C25.9857418,0 22.3626065,2.3828125 20.4143168,6.25 L1.46121731,43.7695313 C-0.487072438,47.6367188 -0.487072438,52.4023438 1.46121731,56.25 L20.4143168,93.75 C22.3626065,97.6171875 25.9686516,99.9804687 29.8823213,99.9804687 L50.5957177,99.9804687 L41.1277131,118.769531 C39.1794233,122.636719 39.1794233,127.402344 41.1277131,131.25 L60.0808125,168.75 C62.0461925,172.65625 65.6522376,175 69.5488171,175 L107.472106,175 C111.368686,175 114.991821,172.65625 116.940111,168.789063 L135.89321,131.269531 C137.8415,127.402344 137.8415,122.65625 135.89321,118.789062 L126.408115,100 L145.121951,100 C149.018531,100 152.641666,97.6367188 154.589956,93.7695312 L173.525965,56.25 C175.491345,52.4023438 175.491345,47.6367188 173.525965,43.7695313 Z M87.6697444,51 L100.647668,75 L75.2590674,75 L87.6697444,51 L87.6697444,51 Z M29.8584375,88 L10.880829,50.5 L29.8584375,13 L67.8649916,13 L81.6062176,38.9765625 L56.8959681,88 L29.8584375,88 Z M126.943005,125.5 L107.901554,163 L69.8186528,163 L50.7772021,125.5 L69.8186528,88 L107.901554,88 L126.943005,125.5 L126.943005,125.5 Z M145.174007,88 L120.38642,88 L94.3005181,38.7226562 L107.283678,13 L145.174007,13 L164.119171,50.5 L145.174007,88 L145.174007,88 Z" id="path-2"></path>
        <linearGradient x1="26.3347441%" y1="35.5029586%" x2="116.379353%" y2="53.1653484%" id="linearGradient-3">
            <stop stop-color="#007AFF" offset="0%"></stop>
            <stop stop-color="#EFEFEF" offset="100%"></stop>
            <stop stop-color="#C0F7FF" offset="100%"></stop>
            <stop stop-color="#CBFFFF" offset="100%"></stop>
        </linearGradient>
    </defs>
    <g id="guinsoomin" stroke="none" stroke-width="1" fill="none" fill-rule="evenodd">
        <g id="Group" fill-rule="nonzero">
            <g id="Shape">
                <use fill="#007AFE" xlink:href="#path-2"></use>
                <use fill="url(#radialGradient-1)" xlink:href="#path-2"></use>
            </g>
        </g>
        <g id="Group" transform="translate(136.000000, 147.000000)" fill="url(#linearGradient-3)" fill-rule="nonzero">
            <path d="M32.1465721,0 C22.8037825,0 14.9976359,4.52941176 12.8770686,10.6625387 C12.6926714,10.6625387 12.5082742,10.6625387 12.2931442,10.6408669 C5.50118203,10.6408669 0,14.5201238 0,19.3095975 C0,21.6068111 1.29078014,23.8173375 3.59574468,25.4210526 C5.90070922,27.0464396 9.03546099,27.9566563 12.2931442,27.9566563 C15.5508274,27.9566563 18.6855792,27.0464396 20.9905437,25.3993808 C22.9267139,24.0340557 24.0023641,22.2136223 24.3096927,20.1981424 L19.8534279,19.9597523 C18.8392435,19.873065 18.5319149,19.3312693 19.1465721,18.7678019 L26.6761229,12.2012384 C27.2907801,11.6377709 28.1205674,11.7027864 28.5200946,12.3529412 L32.7919622,19.7213622 C33.1914894,20.3931889 32.6997636,20.8482972 31.6855792,20.7616099 L28.3664303,20.5448916 C27.9976359,22.993808 26.43026,25.1393189 24.248227,26.8513932 C26.7375887,27.6099071 29.4113475,28 32.1465721,28 C43.1182033,28 52,21.7368421 52,14 C52,6.26315789 43.1182033,0 32.1465721,0 Z" id="Path"></path>
        </g>
    </g>
</svg>