<?xml version="1.0" encoding="UTF-8"?>
<svg width="2708px" height="602px" viewBox="0 0 2708 602" version="1.1" xmlns="http://www.w3.org/2000/svg" xmlns:xlink="http://www.w3.org/1999/xlink">
    <title>GuinsooMin-Top</title>
    <g id="GuinsooMin-Top" stroke="none" stroke-width="1" fill="none" fill-rule="evenodd">
        <text id="guinsooMin" font-family="PingFangSC-Thin, PingFang SC" font-size="300" font-weight="300">
            <tspan x="633" y="401" fill="#000000">guinsoo</tspan>
            <tspan x="1681.5" y="401" font-family="PingFangSC-Regular, PingFang SC" font-weight="normal" fill="#003D7F">Min</tspan>
        </text>
        <g id="pna-incorporated-3" transform="translate(55.000000, 54.000000)" fill-rule="nonzero">
            <path d="M286.065992,306.084507 C285.902438,305.776408 285.750567,305.332746 285.57533,305 C246.918184,335.477113 186.636868,374.088028 169.720716,373.336268 C158.90279,372.830986 130.128976,361.209507 100,346.088028 C101.553763,375.961268 105.046808,403.036972 111.121669,413.339789 C125.970032,438.46831 233.448347,491.929578 256.065523,492.989437 C278.706064,494.024649 385.506798,418.663733 393.906462,400.338029 C396.359772,394.989437 398.123818,379.90493 399,360.815141 C395.1448,362.306338 391.990545,363.193662 389.876026,363.107395 C373.684184,362.355634 296.720364,324.089789 286.065992,306.084507 L286.065992,306.084507 Z" id="Path" fill="#5D99DB"></path>
            <path d="M104.069531,239.977619 C111.43817,218.009092 212.669243,147.196959 242.073623,147.332567 C252.834176,147.394207 273.045302,154.791018 295.104436,165.319145 C302.660215,158.538735 312.520157,150.895364 323,143.671146 C320.859586,117.535749 317.105088,95.222037 311.256962,86.06232 C294.063469,59.1872418 186.247406,0.173021897 154.480382,0 C122.713358,-0.209146646 13.3533899,76.3108581 5.38824144,100.066948 C-2.57690706,123.823038 -3.02136469,259.036734 13.0726799,286.183028 C22.0203136,301.321834 62.0799812,325.953213 100.034323,345 C97.8237313,301.901251 99.7185244,252.971349 104.069531,239.977619 Z" id="Path" fill="#2864A6"></path>
            <path d="M285.713079,305.586612 C275.560626,285.609455 275.923213,198.708823 281.116404,183.245024 C282.379612,179.446898 287.607891,173.614062 295,166.992004 C272.940638,156.460836 252.729303,149.049558 241.968638,149 C212.563953,148.852253 111.331832,219.697169 103.963116,241.672042 C99.6120649,254.669525 97.7172522,303.613559 99.927867,346.724757 C130.092817,361.855603 158.900987,373.484281 169.73183,373.989876 C186.656484,374.717439 247.009776,336.082605 285.713079,305.586612 L285.713079,305.586612 Z" id="Path" fill="#2864A6"></path>
            <path d="M483.804136,173.170477 C472.426595,155.33254 401.042455,116.123668 379.992836,116 C369.187676,115.950724 344.843944,129.316824 323,144.511188 C323.957863,156.43197 324.600332,169.09394 324.904044,181.780617 C353.47639,197.926174 379.607354,216.282943 387.106719,228.018427 C398.309041,245.596948 401.392892,315.083372 399.290267,361 C425.105837,350.648067 483.640598,308.239731 488.8738,296.800722 C494.913008,283.731097 495.193358,191.020767 483.804136,173.170477 L483.804136,173.170477 Z" id="Path" fill="#3D4265"></path>
            <path d="M387.20436,227.585881 C379.696064,215.839344 353.586343,197.465288 325.024457,181.304527 C325.98197,222.417405 323.611543,262.899679 319.045845,272.853323 C316.255048,278.998616 303.270249,291.004813 286,304.692619 C286.175155,305.026468 286.326955,305.4716 286.490433,305.780719 C297.139836,323.845656 374.067761,362.238283 390.263728,362.992534 C392.377261,363.091452 395.530045,362.201188 399.383447,360.692686 C401.485303,314.732816 398.402581,245.180956 387.20436,227.585881 L387.20436,227.585881 Z M325.024457,181.304527 C324.741551,168.852365 324.106818,156.411955 323.12111,144 C313.432369,150.635371 304.132138,157.886167 295.27152,165.712545 C305.056827,170.398795 315.157412,175.740378 325.024457,181.304527 L325.024457,181.304527 Z" id="Shape" fill="#3D4265"></path>
        </g>
    </g>
</svg>