<?xml version="1.0" encoding="UTF-8"?>
<svg width="724px" height="118px" viewBox="0 0 724 118" version="1.1" xmlns="http://www.w3.org/2000/svg" xmlns:xlink="http://www.w3.org/1999/xlink">
    <title>guinsoomin-top</title>
    <g id="guinsoomin-top" stroke="none" stroke-width="1" fill="none" fill-rule="evenodd">
        <g id="guinsoomin" transform="translate(4.000000, 0.000000)" fill-rule="nonzero">
            <path d="M120.664062,65.0976562 L110.15625,65.0976562 C109.53125,65.0976562 108.964844,64.765625 108.671875,64.21875 L94.375,38.1445312 L81.5625,38.1445312 L81.5625,34.765625 L95.390625,34.765625 C95.9960937,34.765625 96.6015625,35.0976562 96.875,35.6445312 L111.171875,61.71875 L120.683594,61.71875 L120.683594,65.0976562 L120.664063,65.0976562 L120.664062,65.0976562 Z M92.34375,98.8085938 L74.8046875,98.8085938 L74.8046875,95.4296875 L91.6015625,95.4296875 L103.125,82.4804688 C103.457031,82.1484375 103.925781,81.953125 104.394531,81.9335938 L113.90625,81.9335938 L113.90625,85.3125 L105.078125,85.3125 L93.5546875,98.2617188 C93.2617188,98.6132812 92.8320312,98.8085938 92.34375,98.8085938 Z M53.2421875,61.7382812 L80.2148438,61.7382812 L80.2148438,65.1171875 L53.2421875,65.1171875 L53.2421875,61.7382812 Z" id="Shape" fill="#007AFE"></path>
            <path d="M74.8242188,44.8828125 C70.1757812,44.7851562 66.4648438,40.9375 66.5625,36.2890625 C66.640625,31.7578125 70.3125,28.1054688 74.8242188,28.0273438 C79.4726562,28.125 83.1835938,31.9726562 83.0859375,36.6210938 C83.0078125,41.1328125 79.3554688,44.7851562 74.8242188,44.8828125 L74.8242188,44.8828125 Z M74.8242188,31.3867188 C72.0507813,31.3867188 69.765625,33.671875 69.765625,36.4453125 C69.765625,39.21875 72.0507813,41.5039062 74.8242188,41.5039062 C77.5976562,41.5039062 79.8828125,39.21875 79.8828125,36.4453125 C79.8828125,33.6914062 77.578125,31.3867188 74.8242188,31.3867188 Z M127.421875,71.8554688 C122.773438,71.7578125 119.0625,67.9101562 119.160156,63.2617188 C119.238281,58.7304688 122.910156,55.078125 127.421875,55 C132.070313,55.0976563 135.78125,58.9453125 135.683594,63.59375 C135.585938,68.1054688 131.953125,71.7578125 127.421875,71.8554688 Z M127.421875,58.359375 C124.648438,58.359375 122.363281,60.6445313 122.363281,63.4179688 C122.363281,66.1914062 124.648438,68.4765625 127.421875,68.4765625 C130.195312,68.4765625 132.480469,66.1914062 132.480469,63.4179688 C132.480469,60.6445313 130.175781,58.359375 127.421875,58.359375 Z M46.5234375,71.8554688 C41.875,71.7578125 38.1640625,67.9101562 38.2617188,63.2617188 C38.3398438,58.7304688 42.0117188,55.078125 46.5234375,55 C51.171875,55.0976563 54.8828125,58.9453125 54.7851563,63.59375 C54.7070313,68.1054688 51.0351563,71.7578125 46.5234375,71.8554688 Z M46.5234375,58.359375 C43.75,58.359375 41.4648438,60.6445313 41.4648438,63.4179688 C41.4648438,66.1914062 43.75,68.4765625 46.5234375,68.4765625 C49.296875,68.4765625 51.5820313,66.1914062 51.5820313,63.4179688 C51.5820313,60.6445313 49.296875,58.359375 46.5234375,58.359375 Z M86.953125,71.8554688 C82.3046875,71.7578125 78.59375,67.9101562 78.6914063,63.2617188 C78.7695313,58.7304688 82.4414063,55.078125 86.953125,55 C91.6015625,55.0976563 95.3125,58.9453125 95.2148438,63.59375 C95.1367188,68.1054688 91.484375,71.7578125 86.953125,71.8554688 Z M86.953125,58.359375 C84.1796875,58.359375 81.8945312,60.6445313 81.8945312,63.4179688 C81.8945312,66.1914062 84.1796875,68.4765625 86.953125,68.4765625 C89.7265625,68.4765625 92.0117188,66.1914062 92.0117188,63.4179688 C92.0117188,60.6445313 89.7265625,58.359375 86.953125,58.359375 Z M120.664063,92.0703125 C116.015625,91.9726563 112.304688,88.125 112.402344,83.4765625 C112.480469,78.9453125 116.152344,75.2929688 120.664063,75.2148438 C125.3125,75.3125 129.023438,79.1601563 128.925781,83.8085938 C128.847656,88.3203125 125.195312,91.9921875 120.664063,92.0703125 Z M120.664063,78.5742188 C117.890625,78.5742188 115.605469,80.859375 115.605469,83.6328125 C115.605469,86.40625 117.890625,88.6914062 120.664063,88.6914062 C123.4375,88.6914062 125.722656,86.40625 125.722656,83.6328125 C125.722656,80.859375 123.4375,78.5742188 120.664063,78.5742188 Z M68.0859375,105.566406 C63.4375,105.46875 59.7265625,101.621094 59.8242188,96.9726562 C59.9023438,92.4414062 63.5742188,88.7890625 68.0859375,88.7109375 C72.734375,88.8085938 76.4453125,92.65625 76.3476563,97.3046875 C76.2695313,101.816406 72.6171875,105.449219 68.0859375,105.566406 Z M68.0859375,92.0703125 C65.3125,92.0703125 63.0273438,94.3554688 63.0273438,97.1289062 C63.0273438,99.9023437 65.3125,102.1875 68.0859375,102.1875 C70.859375,102.1875 73.1445312,99.9023437 73.1445312,97.1289062 C73.1445312,94.3554688 70.859375,92.0703125 68.0859375,92.0703125 Z" id="Shape" fill="#29C8F2"></path>
            <path d="M163.28125,78.59375 C163.28125,100.234375 145.019531,117.792969 122.5,117.792969 L34.140625,117.792969 C15.3515625,117.792969 0.13671875,103.164062 0.13671875,85.1171875 C0.13671875,70.1171875 10.6835938,57.4804688 25.0390625,53.671875 C24.3164063,51.1328125 23.9453125,48.5351562 23.9257813,45.9179688 C23.9257813,29.6875 37.6171875,16.5234375 54.5117188,16.5234375 C56.9335937,16.5234375 59.296875,16.8359375 61.5625,17.34375 C69.1601562,6.6015625 81.7773438,0.17578125 95.2929688,0.17578125 C117.8125,0.17578125 136.074219,17.734375 136.074219,39.375 C136.074219,40.1171875 135.996094,40.859375 135.957031,41.6015625 C151.875,46.9921875 163.28125,61.484375 163.28125,78.59375 Z M140.605469,50.2539062 L140.46875,50.1757812 C139.003906,49.3554688 137.480469,48.6328125 135.917969,48.046875 C133.769531,47.2265625 131.523438,46.6015625 129.257813,46.2304688 C129.824219,43.8867188 130.117188,41.4648438 130.117188,39.0429688 C130.117188,20.703125 114.648438,5.8203125 95.5664063,5.8203125 C94.2578125,5.8203125 92.9492188,5.8984375 91.6796875,6.03515625 C91.3085938,6.07421875 90.9179688,6.15234375 90.546875,6.19140625 C89.6484375,6.30859375 88.75,6.46484375 87.8710938,6.640625 C87.4804688,6.71875 87.0703125,6.8359375 86.6992188,6.93359375 C85.4882812,7.2265625 84.296875,7.6171875 83.1445312,8.046875 C82.2070312,8.37890625 81.2890625,8.7890625 80.390625,9.19921875 C80.1953125,9.296875 80,9.375 79.7851562,9.453125 C73.0859375,12.7929688 67.6953125,18.1054688 64.453125,24.6289062 C61.2304687,23.125 57.6757812,22.3828125 54.1015625,22.3828125 C40.7421875,22.3828125 29.9023437,32.7929688 29.9023437,45.6445312 C29.9023437,46.9140625 30.0195312,48.203125 30.2539062,49.453125 C30.4296875,50.4492187 30.6445312,51.4453125 30.9570312,52.4023437 C31.71875,54.8242187 32.9882812,56.9726562 34.4726562,58.984375 C34.1015625,58.9648438 33.7304687,58.9257813 33.359375,58.9257813 C31.0546875,58.9257813 28.8085937,59.21875 26.6796875,59.7460938 C22.265625,60.8007813 18.2226562,62.8710938 14.8632812,65.8007813 L14.6875,65.9570313 C13.6328125,66.8945312 12.6367187,67.9101563 11.7382812,68.984375 L11.6210937,69.140625 C10.7226562,70.234375 9.921875,71.3867188 9.19921875,72.5976562 C8.515625,73.7890625 7.94921875,75.0390625 7.44140625,76.2890625 C7.36328125,76.484375 7.28515625,76.6796875 7.20703125,76.9140625 C6.77734375,78.1445312 6.42578125,79.4140625 6.171875,80.6835938 L6.0546875,81.3671875 C5.83984375,82.7148438 5.68359375,84.1015625 5.68359375,85.5078125 C5.68359375,100.175781 18.0664062,112.070312 33.3398438,112.070312 L123.222656,112.070312 C132.382812,112.070312 141.171875,108.574219 147.65625,102.34375 L147.734375,102.265625 C148.496094,101.542969 149.21875,100.761719 149.882812,100 C149.980469,99.8828125 150.058594,99.7851562 150.136719,99.6679688 C150.761719,98.9453125 151.308594,98.203125 151.875,97.4609375 C151.972656,97.3046875 152.070312,97.1484375 152.167969,96.9726563 C152.675781,96.2304688 153.164062,95.46875 153.613281,94.7265625 C153.769531,94.4335938 153.90625,94.1015625 154.0625,93.7890625 C154.394531,93.125 154.765625,92.5 155.058594,91.8164063 C155.234375,91.4257813 155.351562,90.9960938 155.546875,90.6054688 C155.78125,89.9804688 156.054688,89.4140625 156.25,88.7890625 C156.425781,88.203125 156.5625,87.6367188 156.738281,87.0507813 C156.855469,86.5625 157.011719,86.09375 157.109375,85.6054688 C157.246094,84.9023438 157.34375,84.1992188 157.441406,83.4960938 C157.5,83.1054688 157.578125,82.7148438 157.617188,82.3242188 C157.734375,81.1914063 157.792969,80.078125 157.792969,78.9257813 C157.792969,77.3632813 157.636719,75.8398438 157.421875,74.3164063 C157.167969,72.4804688 156.757812,70.6640625 156.191406,68.90625 C156.171875,68.8476563 156.132812,68.7695313 156.113281,68.7109375 C155.664062,67.3632813 155.078125,66.015625 154.433594,64.7265625 C153.632812,63.1054688 152.714844,61.5625 151.679688,60.078125 L151.621094,60 C150.722656,58.7695313 149.746094,57.5976563 148.671875,56.484375 L148.339844,56.1328125 C146.035156,53.8476563 143.4375,51.875 140.605469,50.2539063 L140.605469,50.2539062 Z" id="Shape" fill="#007AFE"></path>
        </g>
        <text id="guinsoo.Min" font-family="Silom" font-size="80" font-weight="bold">
            <tspan x="212.681064" y="91" fill="#090909" fill-opacity="0.640952797">guinsoo</tspan>
            <tspan x="552.761064" y="91" font-family="PingFangSC-Semibold, PingFang SC" font-weight="500" fill="#0091FF">.</tspan>
            <tspan x="574.761064" y="91" font-family="Orbitron-Regular_Bold, Orbitron" fill="#000000">Min</tspan>
        </text>
    </g>
</svg>